# xmcd
#
# Track frame offsets:
#	150
#	16230
#	31282
#	51985
#	66782
#	84240
#	96572
#	110402
#	129380
#	147447
#	160567
#	175520
#	188387
#	203382
#	221582
#	235725
#	253860
#	266917
#	280380
#	295115
#
# Disc length: 4133
#
# Revision: 1
# Processed by: cddbd v1.5.1PL0 Copyright (c) Steve Scherf et al.
# Submitted via: EasyCDDAExtractor 4.6.9.1
# Normalized: r0:TDELIM( - )
#
DISCID=18102314
DTITLE=Country Hits - Volume 62 July 1993
DYEAR=1993
DGENRE=Country
TTITLE0=Ricky Van Shelton - A couple of good years left
TTITLE1=Roger Ballard - A little piece of heaven
TTITLE2=Garth Brooks - Ain't going down till the sun comes up
TTITLE3=Stephanie Davis - All in the heart
TTITLE4=Deborah Allen - All the loving and the hurting too
TTITLE5=Michael White - Country conscience
TTITLE6=Waylon Jennings - Cowboy movies
TTITLE7=Marty Brown - I don't want to see you again
TTITLE8=Conway Twitty - I'm the only thing (I'll hold against you)
TTITLE9=Charlie Floyd - Ive fallen in love (and I can't get up)
TTITLE10=Steve Warniner - If I didn't love you
TTITLE11=Ray Stevens - If ten percent is good enough for Jesus (It aought to be good enough for uncle sam)
TTITLE12=Turner Nichols - Moonlight drive-in
TTITLE13=Clint Black - No time to kill
TTITLE14=Kenny Robers - Ol' red
TTITLE15=Lee Roy Parnell - On the road
TTITLE16=Eddy Arnold - OUt of the blue
TTITLE17=Cimmaron - Stone Country
TTITLE18=Collin Raye - That was a river
TTITLE19=Desert Rose Band - What about love
EXTD=
EXTT0=
EXTT1=
EXTT2=
EXTT3=
EXTT4=
EXTT5=
EXTT6=
EXTT7=
EXTT8=
EXTT9=
EXTT10=
EXTT11=
EXTT12=
EXTT13=
EXTT14=
EXTT15=
EXTT16=
EXTT17=
EXTT18=
EXTT19=
PLAYORDER=
